<svg xmlns="http://www.w3.org/2000/svg" viewBox="0 0 800 800" width="100%" height="100%">
  <defs>
    <linearGradient id="dsA" x1="0%" y1="0%" x2="100%" y2="100%">
      <stop offset="0%" stop-color="#2b2f3a"/>
      <stop offset="100%" stop-color="#12141b"/>
    </linearGradient>
    <linearGradient id="dsFoil" x1="0%" y1="0%" x2="100%" y2="100%">
      <stop offset="0%" stop-color="#e8c479"/>
      <stop offset="100%" stop-color="#b8862f"/>
    </linearGradient>
    <linearGradient id="dsB" x1="0%" y1="0%" x2="100%" y2="100%">
      <stop offset="0%" stop-color="#6d4b7a"/>
      <stop offset="100%" stop-color="#42294d"/>
    </linearGradient>
    <filter id="soft" x="-15%" y="-15%" width="130%" height="130%">
      <feDropShadow dx="0" dy="16" stdDeviation="18" flood-color="#2a1a0c" flood-opacity="0.28"/>
    </filter>
  </defs>

  <rect width="800" height="800" fill="#f5ede3"/>
  <rect y="600" width="800" height="200" fill="#e7dccd"/>

  <g filter="url(#soft)">
      <polygon points="395,250 447,221 447,521 395,550" fill="#0d0f14"/>
      <polygon points="180,250 232,221 447,221 395,250" fill="#3a3f4c"/>
      <rect x="180" y="250" width="215" height="300" fill="url(#dsA)"/>
      <path d="M 244.5 250 C 244.5 190, 330.5 190, 330.5 250" fill="none" stroke="#c69a45" stroke-width="12" stroke-linecap="round" stroke-dasharray="14 9"/>
      <rect x="180" y="360" width="215" height="46" fill="url(#dsFoil)"/>
      <polygon points="635,305 677,282 677,527 635,550" fill="#331f3c"/>
      <polygon points="460,305 502,282 677,282 635,305" fill="#8f6a9c"/>
      <rect x="460" y="305" width="175" height="245" fill="url(#dsB)"/>
      <path d="M 512.5 305 C 512.5 256, 582.5 256, 582.5 305" fill="none" stroke="#c69a45" stroke-width="12" stroke-linecap="round" stroke-dasharray="14 9"/>
      <rect x="460" y="395" width="175" height="36" fill="url(#dsFoil)"/>
  </g>
</svg>
