<svg xmlns="http://www.w3.org/2000/svg" viewBox="0 0 800 800" width="100%" height="100%">
  <defs>
    <filter id="rainShadow" x="-10%" y="-10%" width="120%" height="120%">
      <feDropShadow dx="3" dy="10" stdDeviation="12" flood-color="#000" flood-opacity="0.2"/>
    </filter>
  </defs>

  <rect width="800" height="800" fill="#f8fafc"/>

  <g filter="url(#rainShadow)">
    <path d="M 100 240 C 100 130, 140 130, 140 240" fill="none" stroke="#dc2626" stroke-width="12"/>
    <polygon points="70,240 170,240 150,700 50,700" fill="#ef4444"/>

    <path d="M 170 240 C 170 130, 210 130, 210 240" fill="none" stroke="#eab308" stroke-width="12"/>
    <polygon points="140,240 240,240 220,700 120,700" fill="#facc15"/>

    <path d="M 240 240 C 240 130, 280 130, 280 240" fill="none" stroke="#ea580c" stroke-width="12"/>
    <polygon points="210,240 310,240 290,700 190,700" fill="#fb923c"/>

    <path d="M 310 240 C 310 130, 350 130, 350 240" fill="none" stroke="#16a34a" stroke-width="12"/>
    <polygon points="280,240 380,240 360,700 260,700" fill="#4ade80"/>

    <path d="M 380 240 C 380 130, 420 130, 420 240" fill="none" stroke="#cbd5e1" stroke-width="12"/>
    <polygon points="350,240 450,240 430,700 330,700" fill="#f8fafc" stroke="#e2e8f0"/>

    <path d="M 450 240 C 450 130, 490 130, 490 240" fill="none" stroke="#0f172a" stroke-width="12"/>
    <polygon points="420,240 520,240 500,700 400,700" fill="#1e293b"/>

    <path d="M 520 240 C 520 130, 560 130, 560 240" fill="none" stroke="#0284c7" stroke-width="12"/>
    <polygon points="490,240 590,240 570,700 470,700" fill="#38bdf8"/>

    <path d="M 590 240 C 590 130, 630 130, 630 240" fill="none" stroke="#1d4ed8" stroke-width="12"/>
    <polygon points="560,240 680,240 660,700 540,700" fill="#2563eb"/>
  </g>
</svg>